<svg width="15" height="15" viewBox="0 0 15 15" fill="none" xmlns="http://www.w3.org/2000/svg">
<path d="M3.25 2.86367C3.25 2.66406 3.41133 2.5 3.61367 2.5C3.70938 2.5 3.80234 2.53828 3.8707 2.60664L4.27813 3.01406C4.17969 3.26016 4.125 3.53086 4.125 3.8125C4.125 4.35664 4.32187 4.85156 4.65 5.23438C4.50508 5.48594 4.54063 5.81133 4.75391 6.02734C5.01094 6.28438 5.42656 6.28438 5.68086 6.02734L8.52734 3.18359C8.78438 2.92656 8.78438 2.51094 8.52734 2.25664C8.31133 2.04062 7.98594 2.00781 7.73438 2.15273C7.35156 1.82187 6.85664 1.625 6.3125 1.625C6.03086 1.625 5.76016 1.67969 5.51406 1.77539L5.10664 1.36797C4.71016 0.971484 4.17148 0.75 3.61367 0.75C2.44609 0.75 1.5 1.69609 1.5 2.86367V7.75C1.01602 7.75 0.625 8.14102 0.625 8.625C0.625 9.10898 1.01602 9.5 1.5 9.5H13.75C14.234 9.5 14.625 9.10898 14.625 8.625C14.625 8.14102 14.234 7.75 13.75 7.75H3.25V2.86367ZM1.5 10.375V10.8125C1.5 11.5891 1.83906 12.2891 2.375 12.7703V13.875C2.375 14.359 2.76602 14.75 3.25 14.75C3.73398 14.75 4.125 14.359 4.125 13.875V13.4375H11.125V13.875C11.125 14.359 11.516 14.75 12 14.75C12.484 14.75 12.875 14.359 12.875 13.875V12.7703C13.4109 12.2891 13.75 11.5918 13.75 10.8125V10.375H1.5Z" fill="#4B5563"/>
</svg>
